<?xml version="1.0" standalone="no"?>
<!DOCTYPE svg PUBLIC "-//W3C//DTD SVG 20010904//EN"
 "http://www.w3.org/TR/2001/REC-SVG-20010904/DTD/svg10.dtd">
<svg version="1.0" xmlns="http://www.w3.org/2000/svg"
 width="1200.000000pt" height="1200.000000pt" viewBox="0 0 1200.000000 1200.000000"
 preserveAspectRatio="xMidYMid meet">
<metadata>
Created by potrace 1.14, written by Peter Selinger 2001-2017
</metadata>
<g transform="translate(0.000000,1200.000000) scale(0.100000,-0.100000)"
fill="#000000" stroke="none">
<path d="M5699 11996 c-2 -2 -56 -7 -119 -11 -63 -3 -128 -8 -145 -10 -16 -2
-57 -7 -90 -10 -56 -6 -81 -9 -160 -20 -16 -2 -52 -7 -80 -10 -27 -4 -61 -9
-75 -11 -14 -3 -40 -7 -59 -10 -19 -2 -105 -21 -190 -40 -86 -19 -167 -37
-181 -40 -182 -34 -751 -221 -960 -317 -30 -13 -92 -41 -137 -60 -103 -45
-364 -180 -466 -240 -43 -26 -81 -47 -83 -47 -6 0 -114 -68 -281 -177 -101
-65 -330 -227 -343 -242 -3 -3 -39 -33 -80 -65 -73 -59 -264 -223 -325 -280
-328 -310 -575 -591 -817 -931 -76 -106 -263 -395 -282 -435 -4 -8 -12 -24
-19 -35 -73 -121 -221 -409 -271 -526 -8 -19 -29 -66 -47 -105 -135 -298 -275
-743 -364 -1151 -19 -86 -23 -110 -30 -153 -3 -19 -10 -60 -15 -90 -5 -30 -11
-68 -14 -85 -5 -33 -16 -107 -21 -145 -2 -14 -7 -56 -11 -95 -4 -38 -8 -83
-10 -100 -14 -137 -19 -296 -19 -565 1 -325 7 -463 31 -640 2 -19 7 -55 10
-80 7 -69 24 -194 28 -216 4 -19 31 -169 40 -214 12 -69 40 -194 61 -275 13
-50 26 -102 29 -115 11 -57 133 -445 155 -495 5 -11 27 -67 49 -125 112 -296
337 -748 495 -994 19 -28 51 -78 72 -111 101 -157 318 -451 414 -560 14 -17
53 -62 86 -100 154 -180 403 -430 566 -570 114 -99 172 -147 234 -196 94 -75
284 -214 370 -270 145 -95 191 -124 207 -134 39 -23 206 -120 238 -138 84 -48
352 -181 458 -228 65 -28 131 -57 147 -65 238 -106 740 -265 1005 -319 8 -2
71 -14 140 -28 69 -14 145 -29 170 -33 25 -3 54 -8 65 -10 43 -8 264 -34 335
-40 41 -2 89 -7 105 -9 175 -24 768 -24 965 -1 19 3 71 7 115 11 44 3 89 8
100 10 11 2 47 7 80 10 78 8 117 13 255 39 47 8 102 18 124 21 21 3 42 7 46
10 3 2 22 7 41 10 19 3 41 8 49 10 8 2 29 7 45 10 17 3 73 16 125 30 52 14
102 27 110 29 116 29 451 136 515 165 11 5 58 24 105 41 47 18 113 45 148 61
35 16 65 29 67 29 7 0 162 73 280 132 575 288 1092 660 1544 1109 109 108 297
313 346 377 6 7 17 21 26 30 9 9 47 55 83 102 37 47 74 93 82 104 31 37 232
323 280 399 27 42 57 90 66 105 10 15 21 34 25 42 4 7 24 42 45 77 21 34 38
65 38 68 0 3 12 24 26 46 33 52 192 371 234 469 18 41 40 93 50 115 87 198
245 668 276 824 3 14 7 27 9 31 10 17 86 386 110 544 4 21 8 46 10 55 1 9 6
48 10 86 4 39 9 78 11 88 4 22 13 110 19 192 28 362 25 776 -10 1110 -11 106
-32 267 -40 315 -3 14 -7 41 -10 60 -25 158 -82 412 -138 615 -46 166 -137
448 -162 500 -8 17 -27 67 -44 110 -16 44 -58 145 -94 225 -366 817 -882 1513
-1563 2105 -496 433 -1145 820 -1774 1059 -259 98 -702 231 -840 252 -19 3
-48 9 -65 14 -39 12 -420 76 -505 85 -36 4 -72 9 -80 10 -8 1 -55 6 -105 10
-49 4 -106 10 -125 12 -44 5 -716 13 -721 9z"/>
</g>
</svg>
